Coordinates
version=1
nRows=11
nColumns=42
inDegrees=yes

Units are S.I. units (second, meters, Newtons, ...)
If the header above contains a line with 'inDegrees', this indicates whether rotational values are in degrees (yes) or radians (no).

endheader
time	pelvis_tilt	pelvis_list	pelvis_rotation	pelvis_tx	pelvis_ty	pelvis_tz	hip_flexion_r	hip_adduction_r	hip_rotation_r	knee_angle_r	knee_adduction_r	knee_angle_r_beta	ankle_angle_r	subtalar_angle_r	mtp_angle_r	hip_flexion_l	hip_adduction_l	hip_rotation_l	knee_angle_l	knee_adduction_l	knee_angle_l_beta	ankle_angle_l	subtalar_angle_l	mtp_angle_l	lumbar_extension	lumbar_bending	lumbar_rotation	arm_flex_r	arm_add_r	arm_rot_r	elbow_flex_r	pro_sup_r	wrist_flex_r	wrist_dev_r	arm_flex_l	arm_add_l	arm_rot_l	elbow_flex_l	pro_sup_l	wrist_flex_l	wrist_dev_l
      2.30000000	     15.31926066	     -2.77643447	     -1.06195366	      0.53747977	      0.85416871	      0.10106690	     13.08057711	      2.71114962	     -9.40332209	     29.60731975	     -2.79374110	      0.51674521	     13.98165986	    -15.57439242	     -7.50024197	    -26.24531056	     -0.66640878	    -21.39319152	      6.62731933	      5.08048565	      0.11566854	     22.43673668	      8.29488898	     -7.50024197	    -28.12191370	      2.01918082	      2.08289028	     -7.32491326	     -4.11581666	    -11.37895523	     26.09208921	     90.00000001	      0.00000000	      0.00000000	     20.37925661	     -9.92618795	      2.66321370	     42.77690212	     90.00000001	      0.00000000	      0.00000000
      2.31000000	     15.28928133	     -2.68589946	     -0.89406514	      0.54868501	      0.85254744	      0.10155118	     13.26298835	      2.65309911	    -10.04169349	     26.81179807	     -2.63785379	      0.46795415	     13.74187080	    -14.55557360	     -7.50023588	    -27.06818398	     -0.72614182	    -21.42270338	      6.68962794	      5.16450935	      0.11675603	     22.62969143	      8.56976716	     -7.50023588	    -27.92801869	      1.93616649	      1.98177501	     -8.04546557	     -3.96101490	    -11.35668255	     25.96599826	     90.00000001	      0.00000000	      0.00000000	     21.12044565	     -9.94483287	      2.80238856	     43.23049971	     90.00000001	      0.00000000	      0.00000000
      2.32000000	     15.19866465	     -2.57427217	     -0.71821573	      0.55993158	      0.85089951	      0.10209127	     13.45529673	      2.57393167	    -10.75462239	     24.21746958	     -2.51300656	      0.42267458	     13.50074298	    -13.34562608	     -7.50023024	    -27.73071489	     -0.77345888	    -21.38530195	      6.91881595	      5.15226114	      0.12075612	     22.81210852	      8.77733910	     -7.50023024	    -27.66875202	      1.83658211	      1.86364835	     -8.73729456	     -3.80502402	    -11.29586458	     25.87161587	     90.00000001	      0.00000000	      0.00000000	     21.79979831	     -9.96472326	      2.96996231	     43.65113119	     90.00000001	      0.00000000	      0.00000000
      2.33000000	     15.06203092	     -2.44418600	     -0.54648746	      0.57129450	      0.84924903	      0.10266199	     13.66365935	      2.46439706	    -11.65401903	     21.92428632	     -2.43799498	      0.38265098	     13.35684319	    -11.84527624	     -7.50022357	    -28.25486211	     -0.80804389	    -21.34691397	      7.31509052	      5.05025177	      0.12767241	     23.00791551	      8.98313971	     -7.50022357	    -27.34696906	      1.72326519	      1.76312910	     -9.39623246	     -3.62841958	    -11.16625400	     25.81014431	     90.00000001	      0.00000000	      0.00000000	     22.38650004	     -9.97393366	      3.18488983	     44.02221047	     90.00000001	      0.00000000	      0.00000000
      2.34000000	     14.89426186	     -2.25632940	     -0.33318348	      0.58276168	      0.84759851	      0.10318944	     14.03566997	      2.18751253	    -13.51900930	     20.23833201	     -2.55029118	      0.35322553	     13.85871910	     -8.47170947	     -7.50020197	    -28.59793050	     -0.84926274	    -21.67757803	      8.01668409	      4.86191162	      0.13991753	     23.31221469	      9.81411306	     -7.50020197	    -26.97973075	      1.56563634	      1.61284772	    -10.08567448	     -3.53208051	    -10.52941186	     25.76901690	     90.00000001	      0.00000000	      0.00000000	     22.93325964	    -10.10021522	      3.94768302	     44.34010203	     90.00000001	      0.00000000	      0.00000000
      2.35000000	     14.64537870	     -2.12662605	     -0.11617570	      0.59420575	      0.84607223	      0.10378198	     14.24969674	      2.08381041	    -14.37065668	     18.51040753	     -2.45658371	      0.32306756	     13.57416164	     -7.26951922	     -7.50019530	    -28.85146060	     -0.91305708	    -21.47121172	      8.64649253	      4.61606853	      0.15090976	     23.43410300	      9.82395091	     -7.50019530	    -26.54805848	      1.47853766	      1.46057242	    -10.63632177	     -3.35125574	    -10.34740274	     25.70954908	     90.00000001	      0.00000000	      0.00000000	     23.36283454	    -10.03936150	      4.00888793	     44.59671779	     90.00000001	      0.00000000	      0.00000000
      2.36000000	     14.24399178	     -1.86946581	     -0.06262583	      0.60569733	      0.84443180	      0.10438198	     14.75182038	      1.78199251	    -15.06560736	     17.51785128	     -2.27263405	      0.30574418	     13.50098330	     -7.00389953	     -7.50019364	    -28.95008376	     -0.70372761	    -21.25360616	      9.20281633	      4.26428099	      0.16061945	     23.37725491	      9.83377735	     -7.50019364	    -25.94154198	      1.21586258	      1.40191373	    -11.15808245	     -3.21292673	    -10.31788380	     25.62830872	     90.00000001	      0.00000000	      0.00000000	     23.69185092	    -10.03189412	      3.99707714	     44.80700281	     90.00000001	      0.00000000	      0.00000000
      2.37000000	     14.15641891	     -1.85487739	      0.36758999	      0.61741819	      0.84336438	      0.10492293	     14.76670316	      1.69656684	    -17.54611783	     16.51490165	     -2.51582081	      0.28823941	     13.87363768	     -2.36509530	     -7.50017484	    -29.13992193	     -1.09336633	    -21.47174394	     10.36338310	      3.90932187	      0.18087516	     23.60474767	     10.68627355	     -7.50017484	    -25.68472237	      1.32424552	      1.15516608	    -11.61335798	     -3.09392068	     -9.38777033	     25.51436707	     90.00000001	      0.00000000	      0.00000000	     24.06383335	     -9.84833578	      4.10914100	     44.80949220	     90.00000001	      0.00000000	      0.00000000
      2.38000000	     13.81835613	     -1.70250232	      0.55537979	      0.62912688	      0.84221422	      0.10546974	     14.93807383	      1.55771056	    -18.11408996	     15.83006906	     -2.41222742	      0.27628683	     13.73433449	     -2.21331869	     -7.50017345	    -29.20003798	     -1.04768701	    -21.11688393	     11.06671209	      3.42625182	      0.19315056	     23.47577441	     10.69203456	     -7.50017345	    -25.17074166	      1.23909702	      1.04978989	    -12.02641860	     -2.93019673	     -9.34633239	     25.44021594	     90.00000001	      0.00000000	      0.00000000	     24.18395112	     -9.70840649	      4.11450134	     44.93959767	     90.00000001	      0.00000000	      0.00000000
      2.39000000	     13.62305405	     -1.74235989	      0.84772257	      0.64103741	      0.84135287	      0.10614625	     14.98313242	      1.57225584	    -19.86029782	     15.53851367	     -2.55456404	      0.27119822	     13.64431432	      0.52259577	     -7.50015509	    -29.29814705	     -1.39790584	    -21.13159603	     12.14649894	      3.07248765	      0.21199640	     23.23209787	     10.98826909	     -7.50015509	    -24.80301808	      1.38442839	      0.83735775	    -12.33634517	     -2.90107052	     -8.58842881	     25.47776601	     90.00000001	      0.00000000	      0.00000000	     24.26015987	     -9.53730140	      3.69681272	     45.01334320	     90.00000001	      0.00000000	      0.00000000
      2.40000000	     13.35467207	     -1.71448016	      1.03692483	      0.65299135	      0.84063288	      0.10679491	     14.93057384	      1.61799710	    -20.28922261	     15.30272998	     -2.54335392	      0.26708302	     13.38658422	      0.63440454	     -7.50015341	    -29.35126455	     -1.49439819	    -20.77103565	     13.02520561	      2.56198899	      0.22733272	     22.88518727	     10.93913189	     -7.50015341	    -24.37637963	      1.45000273	      0.74988218	    -12.58030249	     -2.79637330	     -8.54274579	     25.44947695	     90.00000001	      0.00000000	      0.00000000	     24.21476266	     -9.39748202	      3.67671601	     45.06395657	     90.00000001	      0.00000000	      0.00000000
